<svg xmlns="http://www.w3.org/2000/svg" viewBox="0 0 32 40" x="0px" y="0px"><defs><style>
      .cls-1 {
        stroke-width: 0px;
      }
    </style></defs><path class="cls-1" d="m4,18.5h8c.2763672,0,.5-.2236328.5-.5s-.2236328-.5-.5-.5H4c-.8271484,0-1.5-.6728516-1.5-1.5V4c0-.8271484.6728516-1.5,1.5-1.5h12c.8271484,0,1.5.6728516,1.5,1.5v8c0,.2763672.2236328.5.5.5s.5-.2236328.5-.5V4c0-1.3789062-1.1210938-2.5-2.5-2.5H4c-1.3789062,0-2.5,1.1210938-2.5,2.5v12c0,1.3789062,1.1210938,2.5,2.5,2.5Z"/><path class="cls-1" d="m28,13.5h-12c-1.3789062,0-2.5,1.1210938-2.5,2.5v12c0,1.3789062,1.1210938,2.5,2.5,2.5h12c1.3789062,0,2.5-1.1210938,2.5-2.5,0-.2763672-.2236328-.5-.5-.5s-.5.2236328-.5.5c0,.7627563-.5742798,1.3873901-1.3119507,1.4810181l-5.4810181-5.4810181,4.2929688-4.2929688,2.5,2.5v1.7929688c0,.2763672.2236328.5.5.5s.5-.2236328.5-.5v-8c0-1.3789062-1.1210938-2.5-2.5-2.5Zm-13.4810181,14.6880493l5.4810181-5.4810181,6.7929688,6.7929688h-10.7929688c-.7627563,0-1.3873901-.5742798-1.4810181-1.3119507Zm12.8345337-9.5415649c-.1953125-.1953125-.5117188-.1953125-.7070312,0l-4.6464844,4.6464844-1.6464844-1.6464844c-.1953125-.1953125-.5117188-.1953125-.7070312,0l-5.1464844,5.1464844v-10.7929688c0-.8271484.6728516-1.5,1.5-1.5h12c.8271484,0,1.5.6728516,1.5,1.5v4.7929688l-2.1464844-2.1464844Z"/><path class="cls-1" d="m8.2197266,7.1054688c-.3408203.1708984-.5527344.5136719-.5527344.8945312v4c0,.3808594.2119141.7236328.5527344.8945312.1425781.0712891.2958984.1064453.4482422.1064453.2109375,0,.4208984-.0673828.5986328-.2001953l2.6669922-2.0009766c.2548828-.1904297.4003906-.4824219.4003906-.7998047s-.1455078-.609375-.4003906-.8007812l-2.6669922-2c-.3046875-.2285156-.7060547-.2636719-1.046875-.09375Zm.4472656,4.8945312v-4l2.6669922,2-2.6669922,2Z"/><path class="cls-1" d="m22,16.5c-.8271484,0-1.5.6728516-1.5,1.5s.6728516,1.5,1.5,1.5,1.5-.6728516,1.5-1.5-.6728516-1.5-1.5-1.5Zm0,2c-.2753906,0-.5-.2246094-.5-.5s.2246094-.5.5-.5.5.2246094.5.5-.2246094.5-.5.5Z"/><path class="cls-1" d="m22.6464844,8.6464844l-1,1c-.1953125.1953125-.1953125.5117188,0,.7070312.0976562.0976562.2255859.1464844.3535156.1464844s.2558594-.0488281.3535156-.1464844l1-1c.1953125-.1953125.1953125-.5117188,0-.7070312s-.5117188-.1953125-.7070312,0Z"/><path class="cls-1" d="m20.5,9v-1c0-.2763672-.2236328-.5-.5-.5s-.5.2236328-.5.5v1c0,.2763672.2236328.5.5.5s.5-.2236328.5-.5Z"/><path class="cls-1" d="m22.5,12c0,.2763672.2236328.5.5.5h1c.2763672,0,.5-.2236328.5-.5s-.2236328-.5-.5-.5h-1c-.2763672,0-.5.2236328-.5.5Z"/><path class="cls-1" d="m10.3535156,21.6464844c-.1953125-.1953125-.5117188-.1953125-.7070312,0l-1,1c-.1953125.1953125-.1953125.5117188,0,.7070312.0976562.0976562.2255859.1464844.3535156.1464844s.2558594-.0488281.3535156-.1464844l1-1c.1953125-.1953125.1953125-.5117188,0-.7070312Z"/><path class="cls-1" d="m12,22.5c-.2763672,0-.5.2236328-.5.5v1c0,.2763672.2236328.5.5.5s.5-.2236328.5-.5v-1c0-.2763672-.2236328-.5-.5-.5Z"/><path class="cls-1" d="m9.5,20c0-.2763672-.2236328-.5-.5-.5h-1c-.2763672,0-.5.2236328-.5.5s.2236328.5.5.5h1c.2763672,0,.5-.2236328.5-.5Z"/><circle class="cls-1" cx="30" cy="26" r=".5"/><text x="0" y="47" fill="#000000" font-size="5px" font-weight="bold" font-family="'Helvetica Neue', Helvetica, Arial-Unicode, Arial, Sans-serif">Created by M. Faisal</text><text x="0" y="52" fill="#000000" font-size="5px" font-weight="bold" font-family="'Helvetica Neue', Helvetica, Arial-Unicode, Arial, Sans-serif">from the Noun Project</text></svg>